<?xml version="1.0" standalone="no"?>
<!DOCTYPE svg PUBLIC "-//W3C//DTD SVG 20010904//EN"
 "http://www.w3.org/TR/2001/REC-SVG-20010904/DTD/svg10.dtd">
<svg version="1.0" xmlns="http://www.w3.org/2000/svg"
 width="1279.000000pt" height="820.000000pt" viewBox="0 0 1279.000000 820.000000"
 preserveAspectRatio="xMidYMid meet">

<g transform="translate(0.000000,820.000000) scale(0.100000,-0.100000)"
fill="#000000" stroke="none">
<path d="M2 6168 l3 -2033 53 -5 c30 -3 57 -12 62 -20 15 -25 19 -6 9 39 -5
24 -7 46 -5 49 3 2 27 6 54 7 27 1 55 5 61 9 17 11 316 14 401 4 41 -5 94 -9
118 -10 26 -1 41 -5 38 -12 -3 -6 -10 -27 -16 -46 -7 -22 -27 -46 -52 -64 -42
-30 -166 -96 -181 -96 -5 0 -23 -11 -41 -25 -18 -14 -40 -25 -48 -25 -26 0
-38 -24 -56 -111 -15 -73 -20 -83 -39 -84 -13 -1 -23 2 -23 7 0 5 -3 7 -8 5
-4 -3 -27 6 -52 19 -29 15 -38 23 -26 24 37 0 1 21 -95 54 -52 17 -104 37
-116 44 -12 7 -26 12 -32 12 -8 0 -11 -77 -11 -240 l0 -240 35 0 c19 0 35 -4
35 -9 0 -5 15 -5 36 -1 29 7 34 6 30 -6 -4 -11 1 -13 20 -10 l26 5 -25 -32
c-14 -18 -30 -31 -36 -30 -6 2 -8 -3 -5 -11 3 -7 -22 -44 -55 -82 l-61 -69 0
-1592 0 -1593 6395 0 6395 0 0 1405 0 1406 -62 -7 c-35 -4 -72 -11 -83 -17
-11 -6 -30 -11 -43 -13 -40 -4 -126 -26 -137 -34 -7 -6 -10 37 -10 123 0 94
-5 154 -19 210 -21 90 -38 107 -85 82 -17 -8 -32 -15 -35 -15 -3 0 -8 20 -12
45 -8 59 -27 77 -73 73 -28 -2 -39 -9 -49 -30 -12 -27 -14 -27 -37 -12 -36 23
-76 14 -101 -23 l-21 -32 -14 57 c-7 31 -13 60 -12 63 3 10 -78 -8 -90 -20
-14 -14 -16 -107 -3 -171 l8 -45 -24 35 c-18 27 -31 35 -53 35 -28 0 -30 -3
-36 -45 -4 -25 -12 -59 -19 -76 -11 -26 -10 -38 9 -87 16 -43 18 -59 8 -62
-82 -29 -183 -51 -188 -41 -3 6 -16 49 -28 96 -13 47 -52 180 -88 295 -35 116
-65 221 -65 235 0 14 -11 61 -25 105 -38 122 -93 318 -93 336 0 11 57 33 213
84 116 38 218 71 226 74 10 3 13 -1 8 -13 -4 -10 -3 -15 3 -11 11 7 6 -68 -8
-112 -6 -18 -13 -63 -17 -100 -11 -107 -52 -230 -89 -264 -18 -18 -18 -18 20
-7 50 13 121 41 204 79 l65 30 3 56 c2 31 10 75 19 97 8 23 17 53 20 69 3 15
9 30 14 33 5 3 9 20 9 38 0 40 28 136 39 136 9 0 37 60 34 71 -2 7 189 72 245
84 20 4 32 3 32 -4 0 -6 7 -11 15 -11 9 0 29 -7 45 -15 30 -15 30 -15 30 13 0
46 12 95 20 82 8 -12 100 -4 100 9 0 4 37 8 83 9 45 2 97 5 115 8 l32 6 0
1944 0 1944 -4749 -2 -4749 -3 -21 -25 c-11 -14 -20 -33 -21 -43 0 -9 -11 -35
-25 -57 -14 -22 -25 -44 -25 -49 0 -14 82 -31 139 -28 41 3 58 9 72 25 23 29
75 30 82 2 4 -16 11 -19 35 -14 22 5 39 0 59 -14 45 -32 248 -44 270 -16 8 11
19 14 35 8 42 -14 80 -5 107 26 15 17 38 30 56 32 47 5 135 67 135 94 0 29 42
43 66 23 11 -9 47 -13 108 -14 97 0 122 -9 145 -53 7 -13 10 -30 7 -38 -3 -9
0 -14 7 -13 20 4 75 -34 86 -58 6 -13 19 -23 30 -23 10 0 22 -7 25 -16 9 -23
8 -24 -14 -24 -11 0 -20 -4 -20 -9 0 -13 -57 -34 -71 -25 -8 4 -10 3 -5 -4 4
-7 2 -12 -3 -12 -6 0 -11 -4 -11 -10 0 -5 9 -10 20 -10 10 0 23 -7 27 -15 7
-12 38 -19 106 -24 14 -2 7 -21 -7 -21 -22 0 -30 -19 -15 -36 6 -8 8 -18 4
-22 -4 -4 -10 -1 -12 6 -6 17 -23 15 -23 -3 0 -10 10 -15 29 -15 23 0 30 6 37
33 11 38 34 44 87 22 l38 -16 -23 -20 c-13 -11 -18 -18 -11 -15 6 4 15 1 18
-4 5 -7 11 -5 20 6 13 19 45 13 41 -8 -3 -26 -19 -40 -37 -35 -10 3 -30 -4
-44 -15 -17 -13 -25 -15 -25 -7 0 10 -3 10 -11 2 -9 -9 -8 -16 4 -27 10 -10
18 -12 22 -6 4 6 11 8 16 5 5 -4 9 -2 9 3 0 16 92 2 117 -17 29 -23 13 -41
-37 -41 -20 0 -42 -6 -48 -12 -10 -10 -15 -10 -22 1 -7 12 -11 12 -24 2 -10
-9 -20 -10 -28 -4 -7 5 -23 8 -35 7 -30 -2 -48 42 -33 81 6 15 7 31 3 35 -4 4
-36 13 -71 20 -34 7 -66 18 -70 24 -4 6 -20 18 -35 26 -25 12 -29 12 -37 0 -6
-8 -10 -11 -10 -6 0 5 -9 1 -20 -9 -11 -10 -20 -22 -20 -27 0 -15 64 -47 107
-54 39 -6 71 -24 43 -24 -6 0 -9 -8 -6 -17 8 -26 -9 -47 -33 -40 -30 7 -44
-15 -25 -41 8 -12 21 -22 29 -22 7 0 26 -7 42 -14 15 -8 36 -17 46 -20 12 -4
17 -16 17 -45 0 -38 2 -40 35 -47 19 -3 35 -10 35 -14 0 -5 11 -21 24 -37 13
-15 25 -37 27 -47 3 -13 13 -20 30 -20 14 -1 38 -9 53 -19 l27 -18 -21 -26
c-41 -52 -12 -107 55 -105 19 1 35 -3 35 -8 0 -6 13 -10 29 -10 17 0 32 -4 36
-10 3 -5 12 -7 20 -3 9 3 15 -1 15 -11 0 -9 8 -16 20 -16 15 0 20 -7 20 -25 0
-34 -20 -74 -41 -80 -16 -6 -36 -36 -21 -34 21 3 53 -15 48 -27 -4 -9 2 -14
15 -14 15 0 19 -5 15 -15 -3 -9 0 -15 9 -15 10 0 15 -10 15 -29 0 -18 11 -41
29 -60 21 -23 29 -39 26 -59 -2 -15 -4 -28 -6 -29 -1 -2 -2 -9 -3 -15 -1 -7
-11 -12 -23 -10 -14 2 -26 -4 -33 -17 -6 -12 -17 -21 -25 -21 -8 0 -15 -8 -15
-17 0 -15 2 -16 10 -3 8 13 11 11 16 -7 4 -13 11 -23 16 -23 5 0 25 -16 44
-35 24 -25 44 -36 69 -37 19 -2 35 -7 35 -11 0 -5 10 -7 23 -5 12 2 21 9 20
16 -4 18 54 15 61 -3 3 -8 -2 -21 -10 -30 -14 -13 -13 -15 6 -15 18 0 21 4 18
25 -4 16 -1 25 8 25 16 0 31 -23 17 -27 -10 -4 5 -82 18 -93 3 -3 9 -18 13
-33 5 -20 12 -27 21 -23 10 4 23 -11 41 -49 15 -32 32 -55 41 -55 12 0 14 -7
9 -31 -3 -17 -6 -35 -6 -40 0 -5 -13 -9 -30 -9 -37 0 -38 -9 -3 -35 15 -11 37
-30 50 -43 13 -13 23 -18 23 -12 0 13 46 13 109 -2 30 -7 51 -17 51 -25 0 -7
4 -13 9 -13 5 0 11 -10 13 -22 2 -13 15 -29 31 -36 16 -8 27 -21 27 -33 0 -10
6 -19 13 -20 6 0 24 -2 40 -4 16 -2 27 1 27 8 0 8 26 13 76 15 50 2 73 -1 69
-8 -3 -5 -1 -10 4 -10 6 0 11 -9 11 -20 0 -16 7 -20 34 -20 19 0 42 3 51 7 15
5 14 8 -6 19 -23 13 -23 13 -3 14 13 0 24 8 27 20 3 11 17 24 31 30 14 5 26
14 26 20 0 5 7 10 15 10 9 0 15 9 15 23 0 13 6 31 13 42 13 17 15 16 28 -13
16 -37 17 -37 47 -16 14 10 38 14 69 12 l48 -3 5 40 c5 36 8 40 34 40 16 0 31
-6 33 -12 6 -16 65 -17 81 -1 9 9 12 9 12 0 0 -10 5 -10 21 -1 13 6 19 17 16
28 -5 21 9 51 25 51 6 0 17 8 24 18 11 14 16 15 34 4 18 -11 22 -9 32 13 13
30 53 43 79 26 24 -14 52 -14 44 0 -4 6 3 5 16 -3 58 -34 77 -75 39 -85 -11
-3 -20 -9 -20 -14 0 -11 23 -7 32 6 4 6 8 -5 8 -23 0 -18 -4 -31 -8 -28 -14 9
-41 -30 -31 -45 7 -11 9 -10 9 4 0 12 8 17 26 17 21 0 25 -4 22 -22 -2 -17
-11 -24 -30 -26 -27 -3 -32 -11 -40 -62 -1 -8 3 -25 10 -37 10 -18 18 -21 48
-16 24 4 39 2 44 -7 7 -11 12 -10 25 3 9 10 22 17 28 17 8 0 7 -4 -1 -12 -16
-16 -15 -48 1 -49 6 -1 19 -3 27 -4 8 -1 21 -3 28 -4 8 0 11 -8 8 -19 -11 -34
16 -54 75 -57 60 -2 89 -12 70 -25 -12 -7 -5 -40 9 -40 4 0 10 8 12 18 4 14
17 18 76 20 40 1 82 8 94 14 33 20 63 51 64 69 2 27 36 72 45 58 5 -8 8 -6 12
7 2 10 6 -51 7 -136 1 -85 5 -195 9 -245 l7 -90 8 63 c4 35 13 62 19 62 7 0 5
5 -3 10 -12 8 -10 10 10 10 29 0 27 12 36 -190 4 -89 2 -199 -6 -285 -7 -77
-12 -146 -13 -152 0 -7 -11 -13 -24 -13 -12 0 -23 6 -24 13 0 6 -4 3 -9 -8 -5
-11 -9 -70 -9 -132 -1 -61 -5 -114 -9 -117 -24 -15 -705 -91 -1077 -121 -243
-19 -235 -19 -235 5 0 16 -7 20 -30 20 -16 0 -30 -4 -30 -8 0 -5 11 -124 25
-266 14 -142 25 -262 25 -267 0 -5 4 -9 9 -9 4 0 7 33 5 73 l-3 72 10 -69 c5
-38 11 -72 14 -74 2 -3 112 9 242 27 131 17 297 38 368 47 72 8 207 26 300 39
94 14 221 28 283 31 l112 7 0 -152 0 -151 -40 -78 c-23 -42 -49 -90 -60 -107
-10 -16 -23 -64 -29 -106 -9 -63 -8 -87 5 -130 8 -30 23 -84 33 -120 29 -104
62 -198 72 -205 6 -3 15 -17 20 -32 7 -18 13 -22 20 -15 8 8 16 6 29 -7 21
-21 80 -40 127 -40 24 0 37 -7 49 -25 9 -14 24 -24 33 -23 10 2 17 -5 19 -20
2 -12 7 -20 12 -17 19 12 109 -285 140 -461 21 -121 16 -162 -17 -150 -20 8
-43 -11 -43 -36 0 -22 -26 -75 -46 -96 -8 -7 -14 -26 -14 -42 0 -16 -7 -35
-16 -42 -8 -7 -29 -28 -47 -47 -43 -46 -95 -97 -150 -148 -46 -43 -77 -111
-77 -170 0 -44 -16 -22 -34 47 -14 55 -24 75 -49 94 -17 14 -34 21 -37 16 -3
-5 -53 -8 -110 -6 -134 5 -224 32 -339 105 -55 34 -135 110 -126 119 3 3 -4
11 -15 19 -11 8 -20 20 -20 26 0 7 -20 33 -45 60 -42 45 -46 47 -87 42 -97
-12 -124 -18 -150 -37 -35 -24 -35 -18 2 83 17 46 53 164 81 262 50 179 120
366 167 442 37 61 62 84 121 113 81 40 136 98 157 168 14 44 34 74 82 127 62
67 63 69 47 93 -13 20 -13 27 -3 44 11 17 10 22 -2 31 -29 19 -218 -10 -205
-32 4 -5 -17 -9 -47 -9 -32 0 -62 -6 -74 -15 -10 -8 -26 -15 -35 -15 -22 0
-44 -28 -59 -75 -25 -79 -88 -201 -139 -269 -28 -38 -54 -81 -58 -95 -14 -56
-59 -143 -143 -271 l-55 -85 -8 75 c-4 41 -21 216 -37 389 -17 173 -32 316
-34 318 -8 8 -56 -10 -56 -21 0 -6 18 -196 40 -423 l40 -411 -36 -59 c-19 -32
-59 -105 -87 -163 l-51 -105 -7 40 c-14 74 -10 306 7 375 8 36 19 124 25 195
5 72 14 148 19 170 15 62 13 122 -5 129 -17 6 -35 -28 -35 -66 0 -39 -31 -128
-45 -128 -12 0 -15 30 -17 157 -3 145 -4 158 -22 161 -28 6 -36 -15 -36 -92 0
-97 -12 -74 -19 36 -5 85 -8 93 -27 96 -32 5 -38 -20 -38 -173 -1 -115 -4
-140 -15 -140 -9 0 -18 15 -23 35 -18 78 -37 167 -43 193 -4 21 -11 27 -32 27
l-26 0 7 -97 c3 -54 11 -116 16 -138 12 -51 13 -162 1 -169 -11 -7 -27 12 -54
66 -26 50 -69 80 -89 60 -10 -10 -9 -18 5 -41 9 -16 17 -36 17 -44 0 -30 71
-153 125 -217 31 -35 61 -83 68 -105 15 -50 14 -344 -2 -505 -6 -63 -16 -206
-21 -316 -8 -157 -14 -212 -28 -245 l-19 -44 -13 25 c-20 40 -101 131 -125
142 -21 9 -22 19 -28 136 -5 108 -15 164 -67 377 -33 138 -82 329 -109 425
-27 97 -52 205 -56 242 -7 63 -1 108 13 108 4 0 36 -36 71 -80 35 -43 73 -88
85 -99 21 -19 21 -19 49 4 15 13 27 27 27 31 0 3 -38 53 -85 111 l-85 104 21
42 c11 23 26 54 34 69 19 33 19 69 1 111 -16 38 -69 96 -111 121 -17 10 -38
30 -47 46 -12 21 -27 31 -60 37 -40 8 -43 11 -40 39 2 16 32 93 68 172 78 174
84 196 54 212 -17 9 -26 8 -46 -5 -33 -22 -130 -174 -158 -249 -32 -84 -65
-148 -76 -144 -17 6 -380 462 -380 477 0 9 -34 55 -75 101 -41 46 -75 87 -75
91 0 4 -7 10 -16 13 -8 3 5 -22 30 -57 25 -34 63 -86 83 -116 l38 -53 -29 -23
-28 -22 148 -183 c82 -101 175 -215 206 -254 42 -52 56 -76 52 -91 -8 -26 -42
-84 -65 -110 -9 -11 -29 -60 -44 -110 -48 -160 -51 -169 -63 -173 -9 -3 -10
21 -6 91 4 67 2 97 -6 102 -24 15 -42 -24 -55 -117 -7 -51 -26 -129 -41 -173
-22 -65 -28 -98 -28 -177 -1 -81 -4 -98 -16 -98 -11 0 -30 -45 -67 -154 -43
-131 -49 -156 -37 -168 12 -12 7 -34 -32 -151 -36 -108 -49 -137 -62 -135 -13
2 -28 -29 -68 -146 l-50 -149 -38 79 c-32 66 -38 89 -37 139 5 245 79 702 136
838 9 22 31 47 53 60 20 13 63 53 94 89 55 62 58 68 77 164 11 54 26 112 34
128 21 39 12 58 -27 54 -24 -2 -38 -13 -63 -52 -20 -29 -35 -43 -37 -35 -3 8
-6 131 -8 274 -3 230 -5 264 -21 288 -9 15 -24 27 -32 27 -33 0 -43 -42 -48
-203 -2 -87 -7 -161 -11 -164 -3 -4 -11 -2 -17 4 -7 7 -7 35 0 89 10 78 -6
294 -24 336 -9 21 -38 31 -66 23 -20 -7 -21 -11 -14 -131 4 -68 4 -168 -1
-221 l-9 -98 -5 100 c-4 55 -2 124 3 153 4 29 5 61 2 72 -9 28 -44 36 -66 14
-22 -23 -39 -152 -38 -298 0 -54 -2 -101 -5 -104 -19 -19 -56 90 -56 166 0 76
-28 102 -65 62 -17 -19 -17 -29 -7 -143 7 -67 12 -165 12 -217 0 -108 12 -207
36 -296 l16 -61 -36 -132 c-19 -73 -39 -138 -43 -146 -5 -7 -8 30 -9 82 -1 90
-2 98 -26 117 -14 12 -28 33 -32 49 -5 22 -15 29 -52 39 l-46 13 6 66 c6 53 4
70 -9 82 -24 25 -18 79 25 206 42 125 49 181 25 201 -22 18 -44 5 -61 -37 -9
-21 -28 -65 -43 -98 -15 -33 -34 -75 -41 -92 -7 -18 -16 -33 -21 -33 -13 0
-11 35 6 115 8 39 18 125 21 193 7 118 6 122 -13 122 -11 0 -27 -8 -36 -18
-22 -24 -54 -118 -69 -201 -6 -36 -14 -58 -16 -47 -2 10 3 60 13 110 9 50 15
121 13 156 l-3 65 -35 0 c-27 0 -37 -5 -47 -25 -15 -33 -50 -206 -58 -296 -7
-76 -16 -101 -34 -90 -7 5 -11 65 -11 185 0 200 -7 225 -53 204 -44 -20 -58
-90 -66 -328 -8 -206 -19 -271 -43 -263 -7 3 -16 23 -20 46 -9 52 -22 78 -61
119 -41 44 -76 43 -68 -1 1 -5 4 -40 6 -78 3 -39 12 -96 20 -128 8 -32 15 -68
15 -81 1 -22 34 -91 104 -212 l28 -47 -27 -47 c-24 -40 -27 -53 -22 -102 5
-43 0 -75 -20 -143 -15 -48 -30 -88 -34 -88 -3 0 -8 39 -11 88 -7 154 -48 204
-167 204 -39 1 -74 5 -77 9 -3 5 -21 9 -40 9 -33 0 -46 14 -21 23 17 6 -31 57
-55 57 -22 0 -23 13 -3 30 8 7 15 23 15 36 0 34 -39 32 -74 -4 -24 -26 -32
-28 -76 -24 -46 4 -51 2 -97 -40 -26 -25 -58 -50 -69 -56 -12 -7 -42 -52 -67
-104 -25 -51 -74 -135 -108 -187 -34 -52 -72 -119 -85 -150 -14 -31 -64 -138
-112 -239 l-87 -182 -35 4 c-19 2 -64 9 -99 15 -44 8 -73 9 -92 2 -16 -5 -29
-8 -29 -5 0 3 13 31 30 62 16 31 52 111 80 177 71 170 77 178 144 199 31 10
56 21 56 24 0 4 -5 34 -10 66 l-10 60 47 84 c26 46 67 106 91 134 48 57 63 82
93 163 24 65 23 77 -20 225 -17 58 -30 120 -31 138 0 18 -6 41 -12 52 -10 16
-7 68 15 272 35 316 35 294 -3 271 -16 -9 -30 -23 -30 -30 0 -19 -49 -454 -55
-490 -5 -30 -7 -31 -32 -18 -18 10 -33 11 -52 4 -30 -12 -41 -26 -41 -56 0
-14 -6 -23 -15 -23 -16 0 -85 -63 -101 -93 -6 -10 -26 -25 -44 -35 -24 -12
-36 -26 -41 -47 -3 -16 -11 -40 -17 -51 -7 -13 -9 -41 -6 -71 l6 -49 -198 -51
c-299 -77 -401 -98 -419 -83 -27 22 -47 4 -40 -37 3 -21 -4 -7 -16 32 l-20 70
26 67 c14 37 42 88 62 113 20 26 37 61 38 78 2 18 3 35 4 40 1 4 15 7 31 7 75
0 234 73 361 166 78 58 80 60 74 94 -3 19 -8 52 -11 73 -4 20 -10 40 -15 43
-17 10 -45 -6 -63 -36 -10 -17 -36 -43 -58 -57 -39 -26 -41 -27 -54 -8 -8 10
-14 31 -14 45 0 58 43 184 100 292 70 134 100 215 100 273 0 94 -49 77 -108
-38 -95 -186 -125 -237 -143 -237 -17 0 -9 38 22 107 37 84 79 224 79 268 0
36 -29 69 -56 63 -11 -2 -26 -23 -38 -53 -41 -105 -88 -210 -97 -220 -12 -12
-13 -16 31 117 38 113 36 151 -8 146 -22 -2 -34 -16 -64 -73 -21 -38 -58 -128
-84 -198 -68 -184 -71 -183 -53 32 9 115 8 136 -5 149 -18 18 -40 11 -60 -20
-8 -13 -27 -88 -40 -166 -18 -100 -38 -174 -65 -243 -22 -54 -43 -115 -47
-134 -7 -39 -10 -40 -51 -23 -15 6 -34 10 -40 9 -7 -1 -13 3 -13 9 0 6 -4 9
-8 6 -10 -6 -47 71 -62 130 -8 33 -6 51 10 98 12 32 21 79 21 104 0 26 5 72
11 101 10 51 9 56 -12 73 -12 10 -31 18 -42 18 -11 0 -35 13 -53 29 l-33 29
36 32 c38 33 92 83 245 228 51 48 92 80 99 76 6 -4 8 -3 5 3 -7 12 100 124
160 168 37 27 195 161 248 210 12 11 38 35 57 53 l36 34 248 -244 c137 -134
272 -264 299 -289 28 -24 118 -113 202 -198 l151 -155 44 29 c67 44 239 175
276 209 33 31 33 31 24 5 -8 -21 -7 -28 11 -38 20 -13 20 -14 3 -26 -16 -12
-16 -14 -1 -23 16 -8 15 -11 -4 -29 -31 -29 -60 -90 -54 -113 3 -11 13 -22 22
-25 14 -4 350 -45 374 -45 4 0 2 9 -5 20 -7 11 -21 20 -31 20 -10 0 -16 4 -13
8 3 5 -15 24 -40 43 -25 18 -41 35 -35 37 7 2 6 10 -2 23 -9 15 -9 23 1 39 15
24 16 57 2 65 -13 8 -13 52 1 60 6 4 9 22 7 40 -1 19 1 37 4 41 4 4 49 1 101
-6 l93 -12 13 -47 c7 -25 19 -62 26 -81 28 -78 28 -108 -2 -171 -16 -33 -35
-59 -43 -59 -12 0 -13 -2 -1 -9 10 -7 11 -9 0 -13 -7 -2 31 -17 84 -33 53 -15
99 -26 102 -24 4 4 16 108 60 514 7 72 15 166 17 210 l3 80 -135 27 c-273 56
-555 104 -812 139 -153 20 -167 24 -170 43 -2 14 -11 22 -30 24 -24 3 -27 -1
-35 -39 l-8 -41 -110 118 c-163 176 -238 264 -232 271 4 3 9 -2 13 -11 3 -9
11 -13 17 -9 5 3 7 2 4 -3 -3 -6 3 -15 14 -22 14 -9 19 -9 19 0 0 6 10 2 23
-10 13 -12 32 -22 43 -22 26 -1 111 -24 120 -33 4 -4 13 -7 20 -7 8 0 30 -15
49 -34 38 -37 91 -59 127 -54 17 2 25 13 33 45 5 23 16 48 23 55 10 10 7 17
-15 35 -27 22 -27 24 -10 37 18 14 18 15 0 26 -13 8 -14 13 -6 16 18 8 16 34
-3 34 -8 0 -13 4 -10 9 10 16 -94 91 -126 91 -31 0 -48 27 -48 76 0 18 -5 24
-21 24 -29 0 -50 13 -108 69 -28 27 -59 51 -68 53 -10 2 -20 14 -23 27 -6 28
-62 61 -105 61 -16 0 -39 7 -49 15 -11 8 -28 15 -38 15 -10 0 -18 4 -18 10 0
8 -39 38 -94 72 -17 10 -50 21 -59 19 -4 -1 -15 6 -24 15 -13 13 -28 15 -67
11 -42 -5 -58 -2 -88 17 -36 22 -37 23 -21 45 15 22 14 24 -13 47 -16 13 -39
27 -51 30 -13 3 -20 11 -16 17 4 7 -6 8 -31 4 -36 -6 -38 -5 -32 18 4 15 0 29
-10 39 -11 11 -14 25 -9 45 5 26 3 29 -27 36 -18 4 -42 8 -54 9 -19 1 -84 56
-84 70 0 3 14 6 31 6 22 0 30 -4 26 -13 -4 -10 3 -12 23 -9 19 3 27 9 23 18
-3 8 -9 14 -14 14 -5 0 -9 7 -9 15 0 8 -4 15 -10 15 -5 0 -10 6 -10 13 0 6
-16 22 -35 35 -23 14 -35 30 -35 45 0 18 -2 19 -10 7 -7 -12 -11 -8 -16 18 -4
22 -15 38 -31 45 -14 6 -21 16 -19 26 7 23 -15 47 -51 55 -31 7 -127 86 -104
86 30 0 4 46 -42 75 -26 17 -50 40 -53 52 -3 11 -15 23 -26 26 -22 6 -16 27 9
27 13 0 13 3 3 15 -7 9 -21 13 -35 9 -16 -4 -24 0 -28 13 -4 10 -12 26 -19 35
-10 15 -9 20 6 31 27 20 12 38 -25 30 -16 -3 -48 1 -72 9 -44 16 -94 18 -114
5 -16 -10 -44 3 -75 36 -16 16 -28 31 -28 33 0 11 43 1 75 -17 26 -16 39 -19
47 -11 12 12 -43 94 -94 144 -16 14 -28 33 -28 41 0 9 -10 17 -22 19 -14 2
-24 12 -28 28 -3 14 -17 30 -30 37 -17 8 -27 23 -30 45 -4 25 -13 37 -39 50
-25 12 -38 14 -47 7 -13 -11 -34 16 -34 44 0 8 -7 17 -15 21 -20 7 -20 62 0
70 22 8 77 -14 100 -41 11 -13 26 -23 33 -23 9 0 9 -6 0 -25 -9 -21 -8 -28 7
-45 19 -22 60 -27 70 -9 11 18 -25 101 -41 95 -8 -3 -14 -1 -14 4 0 6 7 10 15
10 19 0 19 10 1 46 -8 15 -13 31 -10 35 2 4 -5 5 -16 2 -11 -3 -38 4 -60 16
-22 11 -49 21 -60 21 -25 0 -26 16 -3 24 14 6 15 9 4 15 -10 7 -8 12 9 24 19
13 21 22 16 50 -5 28 -3 36 11 41 10 4 19 2 21 -3 2 -7 10 -8 22 -1 12 6 28 7
43 1 29 -11 37 -6 37 25 0 12 6 25 13 28 6 2 1 4 -13 3 -15 -1 -25 4 -28 14
-4 19 44 33 101 30 30 -2 36 0 31 13 -3 9 -1 16 5 16 6 0 11 6 11 13 0 6 11
25 24 40 20 23 22 31 13 51 -7 14 -14 23 -18 20 -3 -2 -23 6 -45 16 -21 11
-44 20 -51 20 -8 0 -11 9 -7 29 5 21 2 30 -12 35 -27 11 -1 23 37 18 22 -3 29
-9 24 -19 -4 -11 -1 -13 12 -8 39 16 62 16 89 -1 44 -28 56 -43 50 -59 -6 -16
8 -28 39 -32 11 -2 22 -8 23 -13 2 -6 9 -10 17 -10 7 0 18 -7 25 -15 9 -11 16
-13 23 -6 7 7 15 7 22 1 8 -7 24 -5 48 5 45 19 47 19 47 0 0 -8 7 -15 15 -15
8 0 15 6 15 14 0 22 37 26 55 6 23 -25 10 -43 -25 -35 -21 5 -34 0 -55 -19
-16 -15 -34 -26 -41 -26 -10 0 -11 -7 -3 -28 14 -41 6 -76 -19 -80 -31 -5 -47
-28 -32 -47 7 -8 19 -15 26 -15 15 0 84 -66 84 -80 0 -14 29 -20 53 -10 12 4
33 19 47 32 33 31 93 31 204 1 11 -3 16 -1 12 5 -8 13 37 2 45 -11 4 -6 17 -1
30 12 12 11 35 21 50 21 33 0 41 21 44 115 2 55 -1 74 -15 90 -10 11 -24 40
-30 65 -7 25 -18 52 -26 61 -16 17 -17 31 -10 89 2 19 -1 41 -6 48 -18 22 10
40 67 44 32 2 55 -1 55 -7 0 -15 45 -33 76 -29 20 2 24 0 15 -9 -20 -20 -12
-24 51 -31 34 -4 74 -14 89 -22 16 -8 39 -14 53 -14 13 0 27 -6 29 -12 3 -7 6
-2 6 11 1 22 62 92 79 90 34 -4 88 57 80 91 -2 9 7 16 22 18 14 2 28 8 31 14
7 11 59 0 59 -13 0 -5 -16 -9 -35 -9 -48 0 -49 -32 -2 -50 56 -21 82 -35 93
-50 10 -12 17 -12 50 2 22 9 46 19 54 21 12 4 11 6 -4 13 -13 5 -21 3 -24 -4
-6 -18 -24 -14 -20 5 3 18 21 23 93 28 57 3 75 -2 75 -20 0 -20 -25 -36 -37
-24 -7 7 -20 8 -34 3 -23 -7 -22 -8 11 -19 19 -6 47 -17 63 -25 24 -12 29 -11
40 3 10 15 17 15 43 5 40 -15 107 7 113 37 3 17 1 18 -13 6 -14 -12 -16 -10
-16 19 0 24 4 31 15 27 8 -4 17 -2 21 4 11 18 36 -13 29 -38 -3 -13 -2 -23 2
-24 5 0 25 -1 46 -3 20 -2 45 3 55 10 9 7 29 14 45 14 17 0 27 5 27 15 0 19
40 75 53 75 5 0 7 -7 3 -15 -3 -9 0 -15 10 -15 9 0 14 6 11 13 -4 10 2 13 18
9 27 -5 39 10 30 38 -7 23 -50 27 -77 6 -10 -7 -32 -12 -49 -11 -24 1 -33 -3
-42 -22 -16 -35 -30 -28 -23 12 l7 35 -1451 0 -1450 0 2 -2032z m2882 1954 c3
-5 -1 -9 -9 -9 -8 0 -12 4 -9 9 3 4 7 8 9 8 2 0 6 -4 9 -8z m-974 -55 c6 -31
5 -37 -10 -42 -23 -7 -73 4 -82 19 -4 7 -13 4 -26 -7 -23 -21 -36 -21 -52 -2
-10 12 -10 15 4 15 9 0 16 8 16 19 0 21 19 31 56 31 20 0 24 -5 25 -32 2 -28
2 -29 6 -8 6 32 34 63 46 51 4 -4 12 -25 17 -44z m-1580 17 c0 -8 -5 -12 -10
-9 -6 4 -8 11 -5 16 9 14 15 11 15 -7z m83 -125 c5 -4 7 -15 3 -25 -6 -16 -7
-16 -20 1 -7 10 -10 29 -7 44 4 22 6 23 9 6 2 -11 9 -23 15 -26z m-88 1 c3 -5
2 -10 -4 -10 -5 0 -13 5 -16 10 -3 6 -2 10 4 10 5 0 13 -4 16 -10z m212 -6
c-11 -11 -77 -14 -77 -4 0 6 19 10 42 10 23 0 38 -3 35 -6z m4298 -14 c15 -6
25 -16 22 -23 -5 -16 -33 -16 -29 1 1 6 -5 12 -13 12 -8 0 -14 -6 -12 -12 3
-17 -37 -22 -63 -8 l-21 11 23 20 c23 19 41 19 93 -1z m-4395 -56 c0 -16 -2
-16 -24 -8 -13 5 -14 9 -5 20 13 16 29 9 29 -12z m170 -234 c0 -5 -4 -10 -10
-10 -5 0 -10 5 -10 10 0 6 5 10 10 10 6 0 10 -4 10 -10z m4040 -51 c0 -5 -7
-9 -15 -9 -15 0 -20 12 -9 23 8 8 24 -1 24 -14z m-3390 -29 c0 -5 -4 -10 -10
-10 -5 0 -10 5 -10 10 0 6 5 10 10 10 6 0 10 -4 10 -10z m337 -16 c-3 -3 -12
-4 -19 -1 -8 3 -5 6 6 6 11 1 17 -2 13 -5z m3110 -31 c-15 -15 -37 -11 -37 8
0 14 44 29 49 17 2 -6 -4 -17 -12 -25z m-7 -33 c0 -5 -5 -10 -11 -10 -5 0 -7
5 -4 10 3 6 8 10 11 10 2 0 4 -4 4 -10z m6070 -325 c10 -12 10 -16 -1 -18 -8
-3 -31 -10 -51 -16 -31 -10 -42 -9 -67 3 -47 25 -44 33 11 35 29 1 54 4 57 6
10 10 39 4 51 -10z m-9805 -435 c10 -11 26 -22 36 -25 10 -3 24 -18 32 -33 13
-27 13 -27 -28 -29 -41 -3 -82 14 -58 23 8 4 3 13 -14 28 -17 15 -24 29 -20
39 9 23 30 21 52 -3z m9299 -316 c24 -9 19 -43 -8 -55 -16 -8 -26 -23 -31 -45
-3 -19 -10 -34 -15 -34 -6 0 -10 -7 -10 -15 0 -9 -9 -15 -21 -15 -14 0 -19 -5
-16 -14 3 -8 -1 -17 -9 -20 -9 -3 -13 -10 -9 -16 3 -5 -5 -12 -18 -16 -28 -6
-63 -43 -77 -80 -5 -13 -17 -24 -25 -24 -26 0 -65 -31 -65 -51 0 -21 36 -27
42 -8 2 7 16 1 33 -15 24 -23 27 -29 17 -50 -8 -18 -7 -30 3 -50 17 -32 4 -42
-20 -16 -22 24 -85 28 -85 5 0 -8 -6 -16 -12 -16 -7 -1 -23 -3 -36 -4 -33 -3
-38 -13 -17 -29 15 -11 19 -25 17 -64 -1 -28 -6 -62 -12 -77 -6 -15 -8 -30 -5
-35 5 -8 -21 -20 -52 -26 -27 -5 -40 -30 -39 -82 1 -54 4 -60 24 -40 19 19 25
2 12 -37 -8 -25 -9 -44 -2 -65 8 -21 7 -30 -1 -33 -8 -2 -11 -24 -10 -58 2
-61 -15 -119 -29 -97 -5 9 -7 5 -6 -11 3 -28 -18 -40 -25 -14 -3 10 -5 4 -6
-14 0 -17 3 -33 9 -35 6 -2 4 -15 -5 -32 -20 -37 -19 -63 1 -74 12 -6 15 -18
12 -35 -3 -15 -2 -24 2 -22 22 14 -7 -125 -65 -313 -36 -117 -70 -222 -75
-235 -5 -12 -50 -159 -100 -327 -170 -567 -178 -590 -206 -600 -27 -11 -32
-22 -62 -125 -12 -38 -28 -92 -38 -118 -16 -45 -16 -53 0 -125 9 -42 17 -83
19 -91 2 -15 -49 -32 -323 -107 -135 -38 -168 -44 -183 -34 -40 25 -39 -5 4
-164 36 -132 46 -156 62 -156 10 0 81 21 158 46 133 43 225 65 204 47 -5 -4
-23 -48 -39 -97 -16 -48 -40 -107 -52 -131 -13 -23 -20 -45 -17 -49 4 -3 1 -6
-5 -6 -7 0 -12 -10 -12 -21 0 -19 4 -21 37 -14 55 10 172 65 177 84 3 9 12 52
21 96 9 44 21 98 27 120 10 39 16 64 17 77 1 3 22 13 48 22 45 15 49 15 61 -1
30 -41 109 -334 156 -580 l23 -123 -20 -72 c-12 -40 -22 -75 -24 -77 -2 -2
-38 3 -80 12 -217 45 -319 47 -395 7 -53 -27 -66 -25 -76 12 -6 18 -33 114
-61 213 -50 175 -66 224 -57 177 3 -14 -1 -25 -10 -29 -8 -3 -14 -11 -14 -18
0 -12 27 -113 89 -334 11 -41 20 -75 18 -76 -78 -44 -224 -194 -273 -284 -18
-31 -46 -101 -64 -156 -18 -55 -41 -107 -51 -117 -11 -9 -19 -20 -19 -26 0
-17 -35 -40 -80 -52 -25 -7 -50 -16 -57 -22 -6 -5 -37 -8 -69 -6 l-57 3 -38
130 c-36 123 -38 138 -38 271 -1 110 -8 183 -32 325 -17 101 -37 227 -45 279
-19 123 -30 436 -16 471 8 20 31 35 94 62 l83 35 49 89 c39 71 49 100 53 148
2 33 5 71 6 85 3 34 -24 37 -62 5 -38 -33 -38 -29 -6 100 31 124 33 222 5 283
-10 23 -26 45 -35 48 -26 10 -47 -16 -43 -53 6 -54 -8 -23 -21 46 -18 91 -29
113 -60 109 -32 -4 -42 -45 -34 -145 6 -72 -21 -233 -39 -233 -4 0 -4 15 0 33
15 68 6 141 -27 230 -31 83 -34 87 -63 87 l-31 0 9 -72 c14 -123 10 -232 -10
-262 -21 -33 -32 -27 -41 24 -4 23 -22 64 -41 91 -24 36 -31 55 -25 67 4 10
11 45 14 80 5 58 3 65 -19 85 -13 11 -24 30 -24 41 0 11 -4 33 -9 50 -5 17
-15 50 -21 73 -6 24 -19 47 -30 53 -11 6 -20 17 -20 25 0 8 -18 29 -40 46
l-40 32 0 463 c0 298 4 465 10 469 6 4 9 96 9 248 -1 133 2 276 6 319 l7 76
145 7 c236 12 1238 -8 1169 -23 -15 -3 -16 -6 -5 -13 10 -6 10 -9 2 -9 -15 0
6 -29 55 -75 17 -17 32 -35 32 -40 0 -5 7 -17 17 -27 22 -24 20 -221 -4 -279
-19 -48 -33 -57 -98 -60 -59 -3 -95 7 -95 26 0 16 -42 25 -140 32 -68 4 -116
-3 -175 -28 -11 -4 -31 -11 -45 -14 -31 -9 -110 -57 -110 -67 0 -5 -7 -8 -15
-8 -8 0 -15 -4 -15 -8 0 -5 136 -12 303 -15 184 -4 377 -15 495 -27 107 -11
198 -17 203 -14 7 4 8 189 4 534 -6 460 -5 528 8 533 8 3 18 3 21 0 10 -10 7
-61 -4 -68 -21 -13 -9 -24 16 -15 17 7 32 6 46 -1 11 -6 35 -8 53 -5 30 6 34
11 40 47 4 26 3 45 -4 52 -20 20 -12 25 29 20 22 -3 54 0 72 8 39 15 118 96
118 120 0 19 54 69 74 69 11 0 81 75 97 104 8 14 -7 56 -21 56 -5 0 -10 -6
-10 -14 0 -16 -28 -41 -36 -33 -6 6 6 24 46 62 27 27 45 31 55 14 5 -7 30 -8
74 -4 85 8 101 13 101 31 0 16 2 16 24 8z m-3705 -11 c-3 -21 3 -32 19 -38 11
-3 25 -23 32 -46 15 -45 30 -60 30 -30 0 27 16 27 30 1 9 -16 7 -22 -7 -27
-10 -4 -22 -12 -26 -20 -5 -9 -22 -12 -52 -9 l-44 4 -3 -36 c-2 -30 -7 -38
-26 -40 -20 -3 -23 0 -18 16 7 21 -19 51 -32 37 -4 -4 -1 -10 6 -12 15 -6 16
-33 2 -33 -6 0 -13 7 -16 15 -9 22 -42 18 -49 -5 -8 -24 -28 -26 -45 -5 -10
12 -10 21 -1 41 8 18 8 31 0 45 -14 26 -8 31 38 34 21 1 48 3 61 4 23 1 30 29
12 47 -9 9 30 36 88 63 1 0 1 -2 1 -6z m1565 -155 c-3 -5 20 -5 51 -2 42 5 55
4 53 -5 -2 -8 12 -14 37 -15 22 -2 56 -6 76 -10 27 -6 40 -4 52 8 17 17 52 22
42 6 -3 -5 3 -10 14 -10 11 0 23 -5 26 -11 5 -7 -28 -9 -107 -6 -62 2 -189 5
-283 6 -207 1 -247 14 -125 39 55 12 171 12 164 0z m-1501 -55 c-13 -2 -33 -2
-45 0 -13 2 -3 4 22 4 25 0 35 -2 23 -4z m2025 0 c-10 -2 -26 -2 -35 0 -10 3
-2 5 17 5 19 0 27 -2 18 -5z m1360 -345 c16 -16 15 -28 -3 -28 -8 0 -15 -5
-15 -12 0 -8 -6 -6 -17 4 -13 14 -14 20 -3 32 15 19 22 20 38 4z m-8175 -673
c-4 -15 -36 -12 -41 3 -3 9 3 13 19 10 13 -1 23 -7 22 -13z m234 -1 c-3 -3
-12 -4 -19 -1 -8 3 -5 6 6 6 11 1 17 -2 13 -5z m28 -29 c11 0 27 4 35 9 27 16
-104 -110 -135 -130 -26 -17 -28 -17 -22 -1 3 9 2 17 -4 17 -16 0 -39 26 -39
44 0 9 -3 15 -7 14 -10 -3 -65 33 -59 39 2 2 22 -1 44 -8 33 -10 45 -9 71 4
26 13 31 13 31 1 0 -8 4 -14 9 -14 5 0 16 -3 25 -6 9 -3 16 -1 16 5 0 6 -8 11
-17 11 -15 0 -14 2 3 14 10 8 21 11 24 8 3 -4 14 -7 25 -7z m-1371 -110 c11
-8 30 -15 42 -15 13 0 33 -4 46 -9 13 -6 39 -12 58 -16 51 -8 67 -20 52 -38
-21 -25 -3 -46 46 -53 72 -10 101 -44 66 -78 -8 -9 -13 -20 -10 -25 3 -5 -4
-12 -17 -15 -22 -6 -22 -6 -2 -22 11 -8 31 -17 45 -20 14 -2 39 -9 56 -14 17
-6 39 -10 50 -10 11 0 25 -5 31 -11 5 -5 34 -11 62 -13 29 -1 56 -7 60 -14 8
-13 131 -28 131 -15 0 4 24 9 53 10 28 2 66 9 82 17 17 8 37 17 45 21 60 24
91 53 84 80 -4 15 0 24 10 28 9 4 16 13 16 20 0 16 41 37 73 37 13 0 28 5 35
12 22 22 22 2 0 -21 -20 -22 -20 -24 -4 -52 9 -16 13 -29 7 -29 -5 0 -81 -72
-169 -160 -87 -88 -165 -160 -172 -160 -8 0 -21 7 -30 15 -16 15 -22 11 -74
-36 l-57 -52 -22 23 c-14 14 -17 21 -7 18 13 -4 40 31 40 52 0 4 -17 10 -37
13 -62 9 -128 25 -164 41 -19 8 -54 21 -79 30 -25 9 -67 30 -93 47 -41 25 -48
34 -42 52 4 12 9 35 12 52 5 27 4 29 -11 16 -9 -8 -19 -11 -22 -8 -9 8 -8 49
0 70 7 14 3 17 -31 17 -21 0 -43 4 -49 9 -5 5 -47 21 -94 36 -78 25 -133 55
-102 55 14 0 17 27 4 32 -5 2 -12 17 -15 35 -7 35 4 48 43 56 14 2 27 5 30 5
3 1 14 -5 24 -13z m9200 -405 c102 -31 143 -49 116 -50 -12 -1 -11 -3 3 -14
14 -11 15 -15 5 -19 -7 -3 -2 -6 12 -6 16 -1 20 -4 13 -9 -8 -5 4 -31 43 -88
33 -48 57 -96 61 -120 3 -21 13 -44 21 -50 12 -9 8 -17 -24 -47 -22 -20 -43
-37 -49 -37 -5 0 -3 -5 5 -10 12 -8 12 -10 -5 -10 -32 -1 36 -27 168 -66 126
-36 143 -40 114 -23 -9 6 -15 14 -12 20 4 5 -1 9 -9 9 -9 0 -15 3 -15 8 5 31
-5 65 -27 91 -24 29 -25 34 -14 62 16 39 128 149 151 149 9 0 19 6 22 13 3 9
9 9 28 0 13 -6 37 -14 53 -18 23 -5 27 -8 15 -16 -12 -7 -12 -9 0 -9 8 0 11
-3 8 -7 -4 -3 -3 -11 2 -17 4 -6 11 -26 15 -44 3 -19 13 -49 22 -68 23 -49 13
-145 -21 -196 -14 -21 -30 -38 -36 -38 -23 0 6 -22 72 -56 38 -19 74 -32 79
-29 4 3 18 38 30 78 37 123 92 291 103 312 10 19 10 19 18 -3 7 -19 12 -21 28
-12 11 5 33 10 50 10 16 0 42 8 59 17 16 9 35 14 43 11 8 -3 24 -41 37 -84 27
-90 111 -372 118 -393 3 -10 8 -11 15 -4 27 27 47 1 78 -95 50 -160 93 -336
83 -340 -43 -14 -42 -18 29 -262 37 -129 79 -270 93 -312 13 -43 20 -80 15
-83 -26 -16 -195 -53 -203 -45 -6 6 -19 10 -29 10 -15 0 -18 -5 -14 -22 37
-150 82 -314 87 -318 4 -3 11 -21 15 -40 4 -19 22 -64 40 -100 37 -72 49 -122
34 -137 -6 -6 -3 -40 11 -97 18 -80 26 -139 13 -108 -2 6 -9 10 -14 6 -5 -3
-9 5 -9 18 l0 23 -18 -22 c-10 -14 -40 -28 -77 -38 -85 -22 -95 -25 -95 -35 0
-5 20 -12 44 -15 31 -5 43 -11 40 -20 -3 -7 4 -16 15 -20 34 -10 14 -25 -35
-25 -31 0 -44 -4 -44 -14 0 -19 44 -25 92 -13 27 7 42 7 47 0 8 -14 100 -21
104 -8 2 5 6 0 9 -11 5 -20 1 -22 -56 -23 -33 -1 -98 -7 -144 -14 -59 -10 -85
-11 -90 -3 -23 37 -69 145 -99 231 -55 159 -76 259 -77 370 -2 90 -5 106 -33
165 -42 85 -102 145 -136 136 -33 -8 -87 -54 -87 -73 0 -15 12 -15 54 2 14 6
18 4 14 -6 -2 -8 -15 -16 -29 -17 -29 -4 -44 -17 -44 -39 0 -16 -14 -27 -47
-37 -25 -8 -22 -34 8 -73 14 -18 32 -55 39 -82 8 -26 31 -69 51 -95 38 -50 35
-37 71 -361 l6 -60 -49 39 c-126 101 -152 127 -181 183 -36 66 -63 162 -63
220 0 21 -5 44 -11 50 -11 11 -32 107 -43 206 -4 31 -13 63 -20 70 -9 9 -13
43 -13 107 0 52 -6 124 -12 159 -10 51 -10 74 0 108 18 64 6 176 -28 264 -24
64 -27 80 -19 121 8 40 6 57 -15 108 -27 69 -72 130 -96 130 -9 0 -21 -7 -27
-15 -10 -13 -15 -12 -41 12 -17 16 -42 44 -57 63 -22 30 -29 33 -45 24 -10 -7
-17 -20 -16 -30 5 -39 -8 -74 -27 -74 -11 0 -24 -9 -30 -21 -15 -26 2 -53 65
-104 57 -48 58 -72 9 -221 -31 -93 -37 -126 -42 -224 -4 -96 -8 -118 -23 -133
-27 -26 -24 -73 12 -169 38 -104 60 -239 63 -388 5 -202 40 -470 100 -754 40
-186 41 -196 25 -196 -6 0 -8 8 -5 18 5 14 4 14 -9 -2 -8 -11 -15 -17 -15 -13
0 4 -8 3 -18 -2 -16 -8 -21 -4 -35 27 -53 124 -81 210 -108 339 -16 79 -45
188 -64 241 -19 53 -35 102 -35 108 0 6 13 17 29 24 16 6 38 21 48 32 17 19
17 20 -1 33 -16 12 -24 12 -54 0 -45 -19 -49 -19 -62 5 -9 17 -5 33 19 83 38
78 51 147 27 147 -14 0 -49 -41 -82 -96 -10 -17 -13 -16 -29 15 -11 23 -15 46
-11 70 8 54 -6 97 -32 93 -38 -6 -133 195 -220 468 -40 124 -40 126 -26 180
25 97 29 156 10 184 -9 14 -16 35 -16 46 0 13 -13 28 -35 41 -19 12 -35 25
-35 30 0 15 -81 99 -96 99 -8 0 -14 10 -14 23 0 31 -27 67 -51 67 -10 0 -19 3
-19 7 0 7 108 363 171 562 29 91 48 132 69 154 17 17 30 38 31 46 3 60 38 181
52 181 6 0 8 3 5 6 -3 3 3 30 13 59 10 30 19 61 19 70 0 22 25 19 134 -15z
m1521 -182 c47 -1 54 -7 13 -12 -13 -1 -30 -6 -38 -11 -9 -5 -15 -4 -18 3 -2
7 -8 12 -13 12 -4 0 -6 -6 -3 -14 4 -10 -22 -21 -98 -41 -57 -15 -111 -29
-120 -32 -10 -2 -18 0 -18 6 0 5 -3 18 -7 28 -6 16 -5 16 10 4 11 -9 17 -10
17 -2 0 6 6 11 14 11 8 0 16 4 18 9 6 17 123 49 161 44 20 -3 58 -5 82 -5z
m-5158 -120 c-3 -8 -6 -5 -6 6 -1 11 2 17 5 13 3 -3 4 -12 1 -19z m-5141 -4
c20 -9 53 -14 71 -12 18 2 33 4 33 3 0 0 -66 -63 -146 -140 -125 -119 -148
-136 -156 -121 -5 9 -21 21 -34 26 -27 11 -30 33 -11 91 11 34 14 36 37 27 14
-6 55 -11 93 -13 55 -2 65 0 57 10 -9 11 -5 14 17 17 25 4 26 5 8 12 -96 38
-131 77 -77 84 12 2 22 10 22 18 0 19 38 18 86 -2z m5151 -146 c-2 -13 -4 -3
-4 22 0 25 2 35 4 23 2 -13 2 -33 0 -45z m-5927 -485 c0 -12 -2 -12 -15 1 -8
8 -15 17 -15 20 0 3 7 3 15 0 8 -4 15 -13 15 -21z m-69 -32 c21 -11 37 -16 34
-11 -3 4 2 10 10 13 10 4 12 1 8 -11 -11 -31 -54 -82 -69 -82 -23 0 -42 22
-36 44 4 14 2 17 -8 11 -7 -4 -16 -2 -21 6 -14 23 -10 29 19 29 21 0 24 2 12
10 -27 18 9 11 51 -9z m-168 -74 c13 -20 22 -23 66 -21 28 2 53 -1 56 -6 3 -5
13 -6 23 -3 14 5 15 4 4 -8 -7 -8 -18 -14 -25 -14 -7 -1 -29 -5 -49 -9 -30 -7
-44 -4 -75 15 -21 13 -39 27 -41 31 -2 4 -13 8 -25 8 -22 1 -22 1 -3 15 28 21
51 18 69 -8z m622 -47 c19 -37 19 -50 0 -24 -8 10 -15 15 -15 9 0 -5 -4 -4 -9
4 -7 11 -13 10 -35 -4 -42 -28 -40 -11 2 17 20 14 38 26 39 27 1 1 9 -12 18
-29z m7532 -162 c-3 -8 -6 -5 -6 6 -1 11 2 17 5 13 3 -3 4 -12 1 -19z m-7677
-5 c14 -4 58 -7 98 -8 39 0 72 -5 73 -10 0 -6 5 -16 11 -22 8 -10 3 -13 -20
-13 -18 0 -32 6 -36 16 -4 12 -10 13 -19 6 -13 -11 -153 -9 -199 3 -23 6 -28
4 -28 -10 0 -14 -3 -15 -15 -5 -8 6 -19 9 -25 5 -5 -3 -10 -3 -10 2 1 13 24
39 40 45 16 6 88 1 130 -9z m7260 -83 c0 -76 -9 -130 -21 -130 -25 0 -40 179
-16 204 23 26 37 -2 37 -74z m-7030 35 c0 -5 -5 -3 -10 5 -5 8 -10 20 -10 25
0 6 5 3 10 -5 5 -8 10 -19 10 -25z m7429 -34 c-6 -34 -16 -61 -21 -61 -6 0 -8
6 -5 13 2 6 10 36 17 64 18 71 24 60 9 -16z m-7022 17 c-3 -7 -5 -2 -5 12 0
14 2 19 5 13 2 -7 2 -19 0 -25z m-779 -10 c127 9 223 8 277 -5 33 -8 65 -15
70 -16 6 -2 16 -6 23 -10 8 -6 12 -2 12 10 1 24 18 -15 68 -153 28 -76 45
-147 57 -229 9 -65 18 -123 21 -127 3 -4 -4 -22 -16 -38 -17 -24 -27 -30 -48
-26 -15 2 -27 5 -27 6 0 2 6 0 -165 46 -74 20 -160 40 -190 45 -30 4 -81 12
-112 17 -32 5 -61 11 -64 14 -3 3 -17 3 -32 -1 -18 -5 -41 -2 -67 9 -22 9 -46
15 -52 13 -7 -3 -13 0 -13 6 0 6 -7 8 -15 5 -22 -9 -31 25 -14 55 8 14 25 26
39 28 14 1 43 6 65 11 l40 8 -39 17 c-21 9 -42 17 -47 17 -16 0 -9 17 44 106
62 106 139 212 144 198 2 -5 20 -8 41 -6z m768 -51 c3 -3 3 -23 -1 -44 l-7
-38 -19 35 c-10 19 -18 41 -19 47 0 13 34 13 46 0z m3919 -139 c-9 -29 -19
-59 -21 -67 -2 -8 -7 -11 -10 -8 -3 3 2 29 12 59 9 29 19 59 21 67 2 8 6 11 9
8 3 -3 -2 -30 -11 -59z m119 -515 c9 -58 14 -108 12 -110 -5 -6 -175 46 -179
55 -2 4 0 22 5 40 6 22 27 47 66 77 31 25 62 45 68 45 6 0 18 -45 28 -107z
m-2254 8 c0 -26 -4 -30 -32 -33 -25 -2 -34 -8 -36 -26 -2 -13 3 -25 12 -28 24
-9 19 -24 -8 -24 -38 0 -48 49 -18 86 14 17 65 51 80 54 1 0 2 -13 2 -29z
m-1470 -339 c19 -19 35 -53 49 -105 25 -91 25 -87 7 -87 -9 0 -12 -8 -8 -25 5
-28 3 -28 -83 -25 -27 1 -54 5 -60 10 -19 16 -96 15 -105 0 -8 -12 -10 -12
-10 -1 0 11 -3 11 -15 1 -27 -22 -28 -2 -5 62 34 94 90 197 114 211 12 7 22
19 23 27 1 8 7 38 14 67 l14 52 18 -79 c14 -59 26 -88 47 -108z m2411 76 c26
-51 63 -144 84 -206 l37 -113 -31 -157 c-17 -86 -40 -226 -53 -310 -12 -85
-25 -147 -29 -140 -6 10 -12 8 -22 -6 -12 -17 -14 -17 -30 -1 -12 12 -17 13
-17 3 0 -10 -3 -9 -10 2 -8 12 -10 12 -10 -5 -1 -26 -18 13 -77 175 -27 72
-46 142 -46 165 0 22 19 99 42 170 28 87 53 194 74 322 18 106 34 193 37 193
3 0 26 -42 51 -92z m-906 33 c6 -27 82 -103 145 -144 25 -16 110 -171 110
-199 0 -8 -17 -50 -38 -94 -22 -43 -47 -104 -57 -134 -9 -30 -21 -59 -26 -64
-4 -5 -44 -21 -88 -36 -87 -30 -143 -60 -216 -115 -37 -29 -49 -34 -61 -24 -9
8 -14 8 -14 1 0 -7 -22 -3 -55 10 -46 17 -60 19 -81 9 -34 -15 -44 -14 -44 7
0 11 -3 13 -8 5 -5 -8 -12 -8 -26 2 -20 15 -20 13 21 185 33 140 87 325 112
382 20 48 53 78 84 78 37 0 113 50 160 104 27 31 54 56 62 56 7 0 16 -13 20
-29z m1765 -78 c0 -8 -46 -233 -81 -398 -14 -64 -23 -145 -24 -223 -3 -110 -6
-127 -27 -157 -12 -19 -27 -33 -32 -32 -11 4 -56 141 -58 177 -1 27 92 329
116 375 8 16 32 81 53 146 21 65 41 119 46 119 4 0 7 -3 7 -7z m-3124 -68 c39
-7 42 -9 41 -41 -1 -31 -8 -39 -29 -35 -17 2 -6 -17 15 -27 l22 -11 -22 0
c-28 -1 -30 -17 -3 -26 31 -10 24 -25 -12 -25 -56 0 -57 2 -84 146 -7 34 -8
34 72 19z m9849 -13 c6 -4 10 -20 10 -35 -1 -31 1 -31 79 -11 23 5 26 3 26
-17 0 -13 11 -48 25 -77 14 -30 25 -55 25 -55 0 -1 -32 -2 -70 -2 -48 0 -73
-4 -79 -13 -11 -18 -42 58 -46 113 -2 22 -6 55 -10 73 -6 27 -5 32 11 32 11 0
24 -4 29 -8z m-6216 -280 l12 -153 -52 -57 c-32 -35 -68 -92 -95 -148 -37 -79
-46 -91 -66 -89 -13 1 -36 3 -51 4 -19 1 -42 14 -64 36 l-36 36 8 82 c4 45 14
129 23 187 l17 105 33 3 c17 2 32 7 32 12 0 5 32 30 71 56 39 27 78 60 87 74
9 14 25 35 36 48 l21 24 7 -34 c3 -18 11 -102 17 -186z m-3591 61 c-16 -38
-38 -70 -39 -58 0 6 -2 20 -3 32 -2 18 0 20 11 12 10 -9 13 -8 13 3 0 12 18
38 27 38 1 0 -3 -12 -9 -27z m-441 -146 c20 -4 44 -2 54 4 15 7 17 6 13 -6 -4
-8 -5 -15 -3 -15 2 0 22 -7 44 -16 40 -15 40 -15 -40 -8 -75 6 -127 11 -132
13 -1 1 3 16 10 34 7 20 12 26 15 16 2 -10 17 -19 39 -22z m241 -95 c79 -2 82
-3 72 -22 -6 -11 -16 -20 -23 -20 -7 0 -6 4 3 10 17 11 5 13 -29 3 -22 -6 -23
-7 -6 -13 18 -6 17 -7 -3 -12 -15 -4 -22 -2 -22 8 0 11 -5 12 -16 6 -21 -12
-74 -3 -74 13 0 9 -13 11 -47 8 -27 -3 -52 -9 -56 -13 -4 -4 -19 -5 -33 -2
-24 4 -24 5 8 22 22 12 51 17 88 15 30 -1 92 -3 138 -3z m10132 -11 c0 -10
-39 -11 -45 -2 -2 5 7 9 20 9 14 0 25 -3 25 -7z m-10400 -11 c0 -5 -5 -10 -11
-10 -5 0 -7 5 -4 10 3 6 8 10 11 10 2 0 4 -4 4 -10z m1370 -174 c0 -3 -4 -8
-10 -11 -5 -3 -10 -1 -10 4 0 6 5 11 10 11 6 0 10 -2 10 -4z m179 -38 c-20
-39 -45 -58 -58 -45 -9 9 -11 8 -6 -4 8 -21 -13 -35 -28 -20 -8 8 -8 11 1 11
7 0 12 7 12 15 0 8 -7 15 -15 15 -8 0 -15 -4 -15 -8 0 -16 -30 -9 -31 7 0 11
-2 12 -6 3 -4 -10 -8 -10 -19 -1 -22 18 -17 26 17 27 18 0 50 4 73 8 23 4 46
7 53 6 6 -2 15 2 18 8 13 21 17 2 4 -22z m4816 -40 c-7 -67 -33 -135 -59 -157
-25 -21 -21 19 8 73 13 25 30 68 37 96 7 27 15 50 17 50 2 0 1 -28 -3 -62z
m3885 2 c0 -5 -2 -10 -4 -10 -3 0 -8 5 -11 10 -3 6 -1 10 4 10 6 0 11 -4 11
-10z m-139 -20 c6 0 8 4 5 8 -7 12 25 8 51 -6 12 -7 35 -12 51 -12 28 0 41
-17 42 -52 0 -10 -102 -10 -115 0 -18 12 -55 64 -54 76 0 7 3 6 6 -1 2 -7 9
-13 14 -13z m-4966 -97 c-3 -14 -2 -22 3 -19 9 5 45 -84 40 -100 -1 -5 3 -19
10 -30 11 -21 7 -34 -11 -34 -5 0 -7 7 -4 15 4 8 2 17 -4 21 -5 3 -7 15 -4 27
5 18 4 19 -5 7 -9 -11 -13 -12 -17 -2 -2 6 -11 12 -19 12 -8 0 -17 7 -21 16
-3 8 -12 13 -19 10 -19 -7 -18 7 8 93 l22 75 14 -34 c7 -18 11 -44 7 -57z
m-3709 49 c-3 -4 8 -7 23 -6 l27 2 -18 -72 c-10 -39 -20 -77 -23 -85 -11 -29
-23 6 -28 87 -5 69 -4 82 9 82 8 0 13 -4 10 -8z m7627 -152 c3 -11 1 -20 -4
-20 -5 0 -9 9 -9 20 0 11 2 20 4 20 2 0 6 -9 9 -20z m36 -7 c-3 -31 1 -43 12
-43 6 0 9 7 5 15 -3 8 -1 15 4 15 6 0 10 -11 10 -25 0 -14 -4 -25 -10 -25 -5
0 -10 -7 -10 -15 0 -9 6 -12 18 -9 14 5 15 4 2 -5 -10 -7 -11 -11 -2 -11 16 0
15 -45 -2 -59 -11 -9 -15 -6 -20 14 -4 14 -4 30 -1 34 2 5 -2 26 -10 47 -10
26 -13 30 -10 12 7 -37 0 -35 -14 2 -5 17 -6 28 -1 25 5 -3 12 6 16 20 7 29
16 34 13 8z m-3989 -13 c0 -5 -2 -10 -4 -10 -3 0 -8 5 -11 10 -3 6 -1 10 4 10
6 0 11 -4 11 -10z m0 -44 c0 -3 -4 -8 -10 -11 -5 -3 -10 -1 -10 4 0 6 5 11 10
11 6 0 10 -2 10 -4z"/>
<path d="M9075 4815 c-79 -50 -95 -63 -95 -73 0 -20 163 10 187 33 7 7 18 16
25 19 10 5 10 7 1 12 -7 3 -13 10 -13 16 0 9 -25 38 -32 38 -2 0 -34 -20 -73
-45z"/>
<path d="M8674 4771 c4 -5 1 -11 -6 -13 -8 -3 -9 -6 -1 -11 6 -4 18 2 28 13
18 19 17 20 -4 20 -12 0 -20 -4 -17 -9z"/>
<path d="M8720 4770 c0 -8 45 -30 61 -30 5 0 27 -12 49 -26 36 -24 41 -25 55
-10 11 10 14 24 10 37 -5 15 -9 18 -15 9 -6 -9 -13 -9 -31 3 -25 15 -129 29
-129 17z"/>
<path d="M8707 4694 c-7 -8 17 -34 32 -34 5 0 13 5 17 11 11 18 -33 39 -49 23z"/>
<path d="M6400 6270 c0 -5 5 -10 10 -10 6 0 10 5 10 10 0 6 -4 10 -10 10 -5 0
-10 -4 -10 -10z"/>
<path d="M8008 6243 c6 -2 18 -2 25 0 6 3 1 5 -13 5 -14 0 -19 -2 -12 -5z"/>
<path d="M920 4855 c0 -8 5 -15 10 -15 6 0 10 7 10 15 0 8 -4 15 -10 15 -5 0
-10 -7 -10 -15z"/>
<path d="M980 4730 c0 -5 7 -10 16 -10 8 0 12 5 9 10 -3 6 -10 10 -16 10 -5 0
-9 -4 -9 -10z"/>
<path d="M11251 1954 c-18 -8 -42 -14 -52 -14 -11 0 -19 -7 -19 -16 0 -8 5
-12 11 -8 8 4 9 -1 4 -15 -9 -28 8 -48 37 -45 13 1 26 3 31 3 4 1 7 6 7 12 0
5 -4 7 -10 4 -5 -3 -10 -2 -10 4 0 5 -8 11 -17 14 -13 3 -9 8 18 20 71 31 71
71 0 41z"/>
<path d="M1479 2368 c-3 -22 -1 -34 4 -29 5 5 7 21 5 37 -3 27 -4 26 -9 -8z"/>
<path d="M6366 1321 c-4 -7 -5 -15 -2 -18 9 -9 19 4 14 18 -4 11 -6 11 -12 0z"/>
<path d="M1598 8013 c7 -3 16 -2 19 1 4 3 -2 6 -13 5 -11 0 -14 -3 -6 -6z"/>
<path d="M1702 7949 c2 -6 8 -10 13 -10 5 0 11 4 13 10 2 6 -4 11 -13 11 -9 0
-15 -5 -13 -11z"/>
<path d="M2440 7850 c-19 -6 -20 -8 -6 -9 13 -1 17 -6 13 -21 -3 -11 -1 -20 5
-20 5 0 8 -10 6 -22 -3 -20 -8 -23 -46 -21 -30 2 -42 -1 -39 -10 2 -7 9 -13
15 -13 24 -3 26 -6 9 -12 -16 -7 -16 -10 -3 -27 15 -20 15 -20 22 0 11 32 35
54 50 48 9 -3 14 2 14 15 0 12 4 23 10 27 5 3 7 12 4 19 -3 7 2 19 10 26 32
26 -7 38 -64 20z"/>
<path d="M2568 7803 c6 -2 18 -2 25 0 6 3 1 5 -13 5 -14 0 -19 -2 -12 -5z"/>
<path d="M695 7400 c-22 -42 -20 -45 26 -45 41 0 62 -17 52 -42 -3 -7 -15 -13
-26 -13 -20 0 -20 -1 -5 -16 10 -10 41 -18 82 -21 57 -5 66 -3 66 11 0 9 -7
19 -15 22 -23 9 -75 60 -75 74 0 7 -6 10 -13 7 -7 -3 -22 8 -33 24 -24 37 -40
37 -59 -1z"/>
<path d="M1347 7233 c-13 -12 -7 -44 8 -50 20 -7 55 24 48 43 -5 14 -44 19
-56 7z"/>
<path d="M1023 7196 c9 -7 17 -18 17 -25 0 -6 5 -11 11 -11 5 0 7 -5 3 -11 -4
-8 -9 -8 -17 0 -6 6 -28 11 -49 11 -35 0 -38 -2 -50 -41 -11 -37 -10 -43 7
-55 10 -8 31 -14 46 -14 14 0 46 -7 69 -15 58 -21 66 -19 80 14 7 17 22 32 36
35 20 5 24 13 24 41 0 22 -5 35 -13 35 -7 0 -23 8 -37 17 -13 9 -31 18 -40 19
-8 1 -35 5 -60 8 -39 5 -43 4 -27 -8z"/>
<path d="M954 6844 c3 -9 6 -18 6 -20 0 -2 11 -4 25 -4 32 0 32 14 0 28 -34
16 -38 15 -31 -4z"/>
<path d="M1385 6410 c-3 -5 -1 -10 4 -10 6 0 11 5 11 10 0 6 -2 10 -4 10 -3 0
-8 -4 -11 -10z"/>
<path d="M1762 6268 c7 -19 38 -22 38 -4 0 10 -9 16 -21 16 -12 0 -19 -5 -17
-12z"/>
<path d="M5298 6052 c-106 -98 -375 -332 -508 -442 -284 -236 -736 -590 -753
-590 -6 0 -19 8 -29 17 -18 16 -20 15 -44 -8 l-25 -25 133 -165 c73 -90 173
-215 222 -277 83 -103 106 -126 106 -103 0 5 -82 112 -181 237 -178 224 -214
272 -174 228 17 -18 302 -368 356 -436 14 -18 18 -19 39 -7 13 8 31 22 40 31
8 9 51 48 96 85 45 37 150 129 235 203 569 501 764 669 867 743 28 21 52 43
52 49 0 23 -231 397 -276 448 -8 8 -26 30 -40 48 -14 17 -30 32 -34 32 -5 0
-42 -30 -82 -68z"/>
<path d="M6560 6000 c0 -22 -4 -40 -10 -40 -13 0 -13 -47 -1 -55 14 -8 43 25
37 42 -3 8 -6 32 -6 54 0 21 -4 39 -10 39 -5 0 -10 -18 -10 -40z"/>
<path d="M5729 5985 c-8 -13 -5 -47 5 -63 12 -20 26 -14 26 13 0 14 -4 25 -9
25 -5 0 -11 8 -13 18 -2 9 -6 13 -9 7z"/>
<path d="M6510 5971 c0 -5 -8 -11 -17 -14 -17 -4 -17 -4 -1 -11 11 -5 23 -2
33 7 19 20 19 27 0 27 -8 0 -15 -4 -15 -9z"/>
<path d="M6325 5950 c4 -6 11 -8 16 -5 14 9 11 15 -7 15 -8 0 -12 -5 -9 -10z"/>
<path d="M5950 5851 c0 -5 7 -11 15 -15 9 -3 15 0 15 9 0 8 -7 15 -15 15 -8 0
-15 -4 -15 -9z"/>
<path d="M6000 5846 c0 -18 30 -30 43 -17 5 5 6 14 3 20 -10 16 -46 13 -46 -3z"/>
<path d="M1828 5772 c-10 -2 -18 -8 -18 -13 0 -13 46 -22 65 -12 14 8 13 11
-7 19 -13 6 -31 8 -40 6z"/>
<path d="M2350 5052 c0 -12 19 -26 26 -19 2 2 -2 10 -11 17 -9 8 -15 8 -15 2z"/>
<path d="M5210 4711 c-20 -6 -25 -14 -28 -49 -2 -25 2 -50 11 -62 11 -16 12
-31 5 -63 -10 -46 -18 -237 -11 -250 3 -4 46 33 95 83 l91 90 -27 21 c-27 21
-63 79 -49 79 4 0 2 5 -5 12 -16 16 -15 28 3 28 13 0 12 5 -3 38 -26 57 -52
80 -82 73z"/>
<path d="M2296 4305 c-3 -8 -1 -15 3 -15 5 0 11 7 15 15 3 8 1 15 -3 15 -5 0
-11 -7 -15 -15z"/>
<path d="M1669 4293 c10 -19 173 -166 239 -216 l53 -40 42 22 c80 43 104 57
132 79 17 13 42 22 64 22 45 0 68 12 49 26 -34 24 -78 44 -98 44 -11 0 -34 7
-50 15 -17 9 -47 15 -67 13 -21 -1 -87 11 -148 26 -121 30 -231 34 -216 9z"/>
<path d="M2229 4299 c-12 -8 -12 -10 1 -19 16 -11 40 -13 40 -4 0 16 -28 31
-41 23z"/>
<path d="M5155 4270 c-3 -5 -2 -10 4 -10 5 0 13 5 16 10 3 6 2 10 -4 10 -5 0
-13 -4 -16 -10z"/>
<path d="M4660 4246 c0 -2 8 -10 18 -17 15 -13 16 -12 3 4 -13 16 -21 21 -21
13z"/>
<path d="M51 4107 c-12 -15 -5 -27 16 -27 7 0 13 9 13 20 0 23 -13 26 -29 7z"/>
<path d="M12450 3985 c0 -9 -4 -14 -9 -11 -12 8 -32 -50 -24 -70 3 -9 13 -14
24 -11 17 5 24 -4 20 -25 0 -5 6 -8 14 -8 18 0 20 38 5 92 -11 39 -30 60 -30
33z"/>
<path d="M12640 3580 c0 -5 -7 -10 -17 -10 -9 0 -14 -3 -10 -6 8 -8 47 5 47
17 0 5 -4 9 -10 9 -5 0 -10 -4 -10 -10z"/>
<path d="M12610 3514 c-25 -8 -67 -16 -94 -18 -27 -2 -57 -11 -67 -20 -11 -9
-26 -16 -34 -16 -7 0 -16 -4 -19 -9 -4 -5 -25 -12 -49 -16 -23 -4 -87 -22
-142 -40 -72 -24 -103 -39 -110 -54 -5 -12 -15 -21 -22 -21 -7 0 -13 -6 -13
-14 0 -18 49 -27 72 -12 15 9 21 8 29 -4 9 -13 10 -13 6 0 -5 18 140 60 223
64 30 2 71 6 90 10 19 3 69 8 110 10 41 3 103 8 138 11 l62 8 0 38 c0 27 -5
39 -17 42 -17 4 -17 5 0 6 10 1 17 9 17 21 0 24 -23 26 -71 6 -19 -7 -49 -17
-66 -21 -27 -5 -33 -4 -33 10 0 13 6 16 21 12 25 -7 51 2 43 14 -7 11 -19 10
-74 -7z m-12 -41 c-10 -2 -28 -2 -40 0 -13 2 -5 4 17 4 22 1 32 -1 23 -4z"/>
<path d="M12530 3328 c0 -5 -37 -8 -82 -8 -79 0 -84 -1 -95 -25 -10 -23 -9
-25 11 -25 13 0 65 9 117 19 67 13 125 18 202 16 89 -3 107 -1 107 11 0 9 -4
12 -10 9 -5 -3 -16 -3 -22 2 -16 10 -228 11 -228 1z"/>
<path d="M12270 3273 c0 -1 9 -7 19 -12 14 -8 20 -7 24 2 3 7 -5 12 -19 12
-13 0 -24 -1 -24 -2z"/>
<path d="M2133 1894 c-6 -13 -8 -24 -5 -25 4 0 26 -2 50 -5 48 -5 57 11 12 21
-16 4 -33 13 -37 20 -6 10 -11 8 -20 -11z"/>
</g>
</svg>
